<?xml version="1.0" encoding="utf-8"?>
<!-- Generator: Adobe Illustrator 16.0.0, SVG Export Plug-In . SVG Version: 6.00 Build 0)  -->
<!DOCTYPE svg PUBLIC "-//W3C//DTD SVG 1.1//EN" "http://www.w3.org/Graphics/SVG/1.1/DTD/svg11.dtd">
<svg version="1.1" xmlns="http://www.w3.org/2000/svg" xmlns:xlink="http://www.w3.org/1999/xlink" x="0px" y="0px" width="500px"
	 height="500px" viewBox="0 0 500 500" enable-background="new 0 0 500 500" xml:space="preserve">
<g id="Background_Complete">
	<g>
		<g>
			<path fill="#EBEBEB" d="M35.338,423.895v25.069h5.79c0,0-0.555-4.991,0-7.949c0.554-2.958,6.84-10.578,6.655-17.12H35.338z"/>
			<path fill="#E0E0E0" d="M81.655,423.895v25.069h5.79c0,0-0.555-4.991,0-7.949c0.554-2.958,6.84-10.578,6.655-17.12H81.655z"/>
			<path fill="#EBEBEB" d="M126.987,423.895v25.069h-5.79c0,0,0.554-4.991,0-7.949c-0.555-2.958-6.84-10.578-6.655-17.12H126.987z"
				/>
			<path fill="#E0E0E0" d="M167.08,423.895v25.069h-5.79c0,0,0.555-4.991,0-7.949c-0.554-2.958-6.839-10.578-6.655-17.12H167.08z"/>
			<rect x="31.4" y="300.134" fill="#F5F5F5" width="138.716" height="124.571"/>
			<polygon fill="#E0E0E0" points="132.745,300.134 133.778,424.706 170.116,424.706 170.116,300.129 			"/>
			<rect x="37.642" y="309.298" fill="#EBEBEB" width="89.06" height="31.697"/>
			<rect x="37.642" y="347.315" fill="#EBEBEB" width="89.06" height="31.697"/>
			<rect x="37.642" y="385.332" fill="#EBEBEB" width="89.06" height="31.697"/>
			<g>
				<g>
					<g>
						<polygon fill="#E0E0E0" points="71.782,264.338 67.94,299.987 117.159,299.987 121.241,264.338 						"/>
					</g>
				</g>
				<g>
					<g>
						<polygon fill="#FFFFFF" points="73.805,266.899 70.068,298.093 114.487,298.093 118.081,266.899 						"/>
					</g>
				</g>
				<g>
					<g>
						<polygon fill="#EBEBEB" points="81.28,272.146 78.98,292.846 107.012,292.846 108.45,272.146 						"/>
					</g>
				</g>
			</g>
			<polyline fill="#EBEBEB" points="119.483,279.691 129.649,300.129 117.159,299.987 119.483,279.691 			"/>
		</g>
		<circle fill="#E0E0E0" cx="82.172" cy="326.803" r="3.258"/>
		<circle fill="#E0E0E0" cx="82.172" cy="365.197" r="3.258"/>
		<circle fill="#E0E0E0" cx="82.172" cy="403.59" r="3.258"/>
	</g>
	<g>
		<g>
			<g>
				<polygon fill="#E0E0E0" points="126.563,97.632 47.908,96.867 50.104,199.371 128.749,199.659 				"/>
			</g>
		</g>
		<g>
			<g>
				<polygon fill="#FAFAFA" points="121.489,102.204 52.637,100.415 54.628,193.38 123.46,194.228 				"/>
			</g>
		</g>
		<g>
			<g>
				<polygon fill="#EBEBEB" points="109.736,116.091 64.054,115.332 65.446,180.31 111.091,179.332 				"/>
			</g>
		</g>
		<g>
			<g>
				<polygon fill="#F5F5F5" points="65.446,180.31 110.375,145.95 64.054,115.332 				"/>
			</g>
		</g>
	</g>
	<g>
		<g>
			<g>
				<polygon fill="#E0E0E0" points="465.005,44.205 396.004,43.534 397.931,133.456 466.923,133.709 				"/>
			</g>
		</g>
		<g>
			<g>
				<polygon fill="#FAFAFA" points="460.554,48.215 400.153,46.646 401.9,128.201 462.284,128.945 				"/>
			</g>
		</g>
		<g>
			<g>
				<polygon fill="#EBEBEB" points="450.244,60.398 410.168,59.732 411.39,116.735 451.432,115.877 				"/>
			</g>
		</g>
		<g>
			<g>
				<polygon fill="#F5F5F5" points="411.39,116.735 450.805,86.592 410.168,59.732 				"/>
			</g>
		</g>
	</g>
	<g>
		<g>
			<path fill="#EBEBEB" d="M387.71,382.3c-0.294,0.883,10.001,40.002,10.001,40.002l7.059-1.471l-9.706-38.531H387.71z"/>
		</g>
		<g>
			<polygon fill="#F5F5F5" points="442.418,376.712 428.3,422.302 436.537,422.302 450.066,379.948 			"/>
		</g>
		<g>
			<polygon fill="#EBEBEB" points="455.361,369.653 439.183,422.302 447.418,422.302 463.008,372.888 			"/>
		</g>
		<g>
			<polygon fill="#E0E0E0" points="392.71,419.067 400.947,447.597 442.418,447.597 450.066,419.067 			"/>
		</g>
		<g>
			<g>
				<path fill="#E0E0E0" d="M414.104,419.067c-0.009,0.002-0.039-0.098-0.092-0.293c-0.056-0.224-0.128-0.511-0.219-0.873
					c-0.189-0.802-0.457-1.931-0.797-3.369c-0.679-2.968-1.649-7.212-2.85-12.46c-2.371-10.585-5.649-25.216-9.308-41.548
					l0.253,0.203c-1.161,0-2.406,0-3.66,0c-1.234,0-2.459,0-3.602,0l0.254-0.317c3.682,16.348,6.979,30.99,9.365,41.585
					c1.16,5.263,2.099,9.519,2.755,12.494c0.309,1.448,0.55,2.583,0.722,3.391c0.073,0.366,0.131,0.657,0.176,0.883
					c0.036,0.199,0.051,0.303,0.042,0.305c-0.008,0.002-0.039-0.098-0.093-0.293c-0.057-0.223-0.131-0.511-0.224-0.872
					c-0.193-0.803-0.466-1.931-0.814-3.369c-0.693-2.968-1.686-7.211-2.913-12.459c-2.426-10.585-5.779-25.216-9.522-41.549
					l-0.073-0.317h0.326c1.143,0,2.367-0.001,3.602-0.001c1.254,0,2.499,0.001,3.66,0.001h0.209l0.045,0.203
					c3.598,16.347,6.819,30.989,9.15,41.584c1.134,5.263,2.051,9.519,2.691,12.494c0.301,1.448,0.536,2.583,0.704,3.391
					c0.071,0.366,0.127,0.657,0.171,0.883C414.098,418.961,414.113,419.065,414.104,419.067z"/>
			</g>
		</g>
	</g>
</g>
<g id="Background_Simple" display="none">
	<path display="inline" fill="#E0E0E0" d="M429.419,94.234c26.696,53.192,18.252,120.336-15.113,169.62
		c-33.366,49.283-88.876,81.191-147.246,92.811c-41.667,8.294-86.492,6.605-124.564-12.249
		c-38.071-18.854-68.008-56.787-70.291-99.21c-0.862-16.024,2.536-33.039,13.229-45.003c17.074-19.105,46.223-19.777,71.833-18.989
		c25.61,0.788,54.74,0.191,71.897-18.839c13.184-14.622,15.125-35.832,22.072-54.253c11.813-31.322,40.311-55.78,73.063-62.703
		c4.549-0.961,9.16-1.581,13.791-1.87c36.022-2.25,70.189,16.288,89.087,47.038L429.419,94.234z"/>
</g>
<g id="Floor">
	<g>
		<g>
			<path fill="#263238" d="M454.628,448.79c0,0.144-94.943,0.261-212.035,0.261c-117.132,0-212.055-0.117-212.055-0.261
				s94.923-0.26,212.055-0.26C359.685,448.53,454.628,448.646,454.628,448.79z"/>
		</g>
	</g>
</g>
<g id="Plants">
	<g>
		<g>
			<g>
				<path fill="#263238" d="M427.33,175.848c0,0-0.229-0.108-0.709-0.217c-0.476-0.111-1.227-0.177-2.168,0.032
					c-0.94,0.206-2.048,0.725-3.153,1.619c-1.116,0.889-2.158,2.188-3.2,3.729c-2.046,3.136-3.661,7.478-5.541,12.539
					c-1.849,5.071-3.922,10.933-5.64,17.63l-0.006,0.023l-0.008,0.014c-0.303,0.542-0.681,1.032-1.166,1.443
					c-0.483,0.388-1.14,0.71-1.818,0.581c-0.674-0.106-1.213-0.545-1.675-0.966c-0.467-0.433-0.905-0.894-1.346-1.358
					c-0.878-0.928-1.764-1.875-2.771-2.704c-0.997-0.792-2.2-1.563-3.505-1.432c-1.269,0.162-2.483,1.022-3.213,2.141
					c-0.73,1.151-1.043,2.556-1.106,3.972c-0.17,2.862,0.656,5.746,1.158,8.742c0.557,2.99,1.128,6.053,1.711,9.187
					c0.292,1.567,0.587,3.151,0.886,4.753c0.148,0.801,0.299,1.605,0.449,2.415c0.181,0.773,0.277,1.772-0.286,2.561
					c-0.275,0.418-0.882,0.582-1.335,0.454c-0.46-0.108-0.843-0.37-1.183-0.616c-0.673-0.504-1.35-1.01-2.029-1.52
					c-1.356-1.01-2.755-1.989-4.237-2.853c-1.479-0.854-3.054-1.627-4.739-1.974c-0.838-0.169-1.71-0.199-2.522,0.017
					c-0.814,0.208-1.543,0.696-2.055,1.38c-1.038,1.373-1.319,3.223-1.348,4.997c-0.029,1.797,0.197,3.614,0.524,5.42
					c0.672,3.616,1.761,7.21,3.048,10.778c0.296,0.896,0.744,1.751,0.874,2.78c0.063,0.499-0.002,1.101-0.37,1.543
					c-0.087,0.109-0.185,0.208-0.289,0.291c-0.128,0.088-0.156,0.161-0.39,0.229c-0.398,0.086-0.641-0.083-0.87-0.191
					c-0.89-0.52-1.579-1.195-2.313-1.841c-0.712-0.66-1.426-1.322-2.143-1.986c-1.433-1.318-2.896-2.627-4.548-3.662
					c-0.824-0.512-1.699-0.959-2.623-1.194c-0.918-0.256-1.905-0.179-2.674,0.332c-0.773,0.518-1.277,1.379-1.513,2.316
					c-0.246,0.939-0.353,1.931-0.356,2.926c-0.014,1.992,0.274,4.004,0.753,5.973c0.908,3.959,2.49,7.786,4.342,11.494
					c1.854,3.712,4.065,7.292,6.473,10.753c1.136,1.778,2.57,3.361,3.897,5.028c1.348,1.652,2.701,3.311,4.06,4.975l0.046,0.058
					l-0.238-0.093c2.126-0.31,4.245-0.618,6.356-0.925c2.105-0.335,4.236-0.523,6.272-1.081c4.11-0.942,8.157-2.105,12.026-3.607
					c3.865-1.499,7.612-3.268,10.948-5.588c1.68-1.135,3.245-2.432,4.576-3.915c0.667-0.738,1.254-1.544,1.705-2.405
					c0.457-0.853,0.664-1.828,0.441-2.732c-0.225-0.895-0.903-1.617-1.754-2.046c-0.843-0.447-1.792-0.705-2.746-0.881
					c-1.919-0.345-3.883-0.36-5.83-0.348c-0.978,0.01-1.951,0.02-2.923,0.029c-0.978-0.016-1.942,0.021-2.95-0.192
					c-0.243-0.074-0.536-0.112-0.773-0.445c-0.126-0.208-0.097-0.28-0.133-0.432c-0.021-0.132-0.027-0.271-0.018-0.41
					c0.025-0.574,0.383-1.063,0.765-1.39c0.789-0.675,1.696-1.006,2.518-1.471c3.353-1.775,6.575-3.705,9.505-5.93
					c1.457-1.118,2.846-2.312,4.032-3.662c1.171-1.333,2.207-2.892,2.359-4.606c0.08-0.851-0.135-1.701-0.598-2.401
					c-0.457-0.706-1.123-1.271-1.858-1.707c-1.481-0.875-3.167-1.362-4.837-1.724c-1.678-0.357-3.372-0.572-5.055-0.736
					c-0.846-0.081-1.687-0.161-2.524-0.24c-0.417-0.047-0.876-0.111-1.289-0.343c-0.422-0.214-0.753-0.745-0.674-1.239
					c0.119-0.96,0.864-1.634,1.517-2.083c0.655-0.498,1.308-0.993,1.956-1.485c1.298-0.985,2.582-1.959,3.851-2.923
					c2.539-1.927,5.021-3.81,7.443-5.648c2.387-1.879,4.936-3.459,6.733-5.693c0.904-1.09,1.617-2.341,1.849-3.684
					c0.211-1.318-0.111-2.773-0.943-3.743c-0.417-0.493-1.023-0.784-1.637-0.977c-0.616-0.206-1.274-0.268-1.921-0.316
					c-1.303-0.064-2.595,0.042-3.868,0.138c-0.638,0.047-1.272,0.093-1.909,0.101c-0.624,0-1.318-0.038-1.888-0.412
					c-0.589-0.36-0.857-1.041-0.954-1.652c-0.083-0.63-0.034-1.246,0.107-1.851l0.003-0.016l0.012-0.021
					c3.225-6.102,5.629-11.823,7.667-16.812c2.008-5.001,3.728-9.292,4.346-12.977c0.277-1.835,0.413-3.494,0.198-4.902
					c-0.19-1.406-0.628-2.544-1.164-3.342c-0.533-0.803-1.127-1.267-1.549-1.51c-0.423-0.249-0.665-0.324-0.665-0.324
					s0.252,0.047,0.688,0.286c0.434,0.233,1.045,0.692,1.599,1.5c0.556,0.801,1.014,1.953,1.219,3.374
					c0.23,1.424,0.108,3.097-0.158,4.947c-0.598,3.716-2.3,8.032-4.285,13.041c-2.02,5.006-4.397,10.731-7.62,16.874l0.015-0.036
					c-0.127,0.552-0.173,1.153-0.094,1.724c0.093,0.56,0.326,1.132,0.817,1.427c0.478,0.312,1.087,0.355,1.705,0.352
					c0.62-0.009,1.249-0.056,1.885-0.105c1.271-0.1,2.576-0.212,3.914-0.15c0.666,0.048,1.347,0.11,2.007,0.327
					c0.653,0.203,1.322,0.519,1.797,1.073c0.94,1.104,1.255,2.612,1.043,4.044c-0.244,1.438-0.993,2.742-1.919,3.865
					c-1.847,2.301-4.424,3.899-6.792,5.775c-2.417,1.842-4.894,3.729-7.427,5.659c-1.267,0.965-2.547,1.941-3.842,2.927
					c-0.647,0.493-1.298,0.989-1.952,1.488c-0.336,0.255-0.655,0.479-0.889,0.782c-0.234,0.299-0.43,0.652-0.46,1
					c-0.044,0.351,0.141,0.64,0.455,0.82c0.322,0.181,0.713,0.244,1.125,0.288c0.835,0.078,1.674,0.157,2.517,0.235
					c1.691,0.163,3.401,0.376,5.105,0.737c1.698,0.367,3.418,0.854,4.979,1.772c0.773,0.458,1.498,1.062,2.011,1.848
					c0.519,0.779,0.762,1.752,0.674,2.687c-0.173,1.898-1.273,3.511-2.469,4.883c-1.217,1.388-2.625,2.598-4.097,3.73
					c-2.959,2.253-6.198,4.194-9.567,5.982c-0.831,0.467-1.748,0.82-2.42,1.406c-0.335,0.292-0.582,0.65-0.599,1.055
					c-0.007,0.101-0.003,0.203,0.015,0.309c0.012,0.079,0.041,0.269,0.07,0.252c0.031,0.071,0.256,0.171,0.466,0.215
					c0.884,0.189,1.874,0.165,2.831,0.177c0.971-0.011,1.943-0.021,2.92-0.032c1.954-0.014,3.944-0.003,5.925,0.352
					c0.985,0.182,1.977,0.445,2.895,0.932c0.919,0.457,1.742,1.302,2.006,2.367c0.265,1.051,0.008,2.17-0.478,3.081
					c-0.48,0.92-1.093,1.755-1.779,2.517c-1.37,1.529-2.963,2.846-4.666,3.999c-3.383,2.354-7.161,4.137-11.054,5.648
					c-3.9,1.515-7.957,2.682-12.104,3.634c-2.062,0.563-4.186,0.749-6.296,1.086c-2.114,0.308-4.237,0.616-6.367,0.927l-0.146,0.021
					l-0.094-0.114l-0.047-0.058c-1.359-1.666-2.715-3.327-4.064-4.982c-1.33-1.671-2.762-3.249-3.911-5.047
					c-2.427-3.492-4.644-7.081-6.512-10.824c-1.863-3.734-3.459-7.594-4.379-11.609c-0.484-1.998-0.778-4.043-0.764-6.096
					c0.005-1.024,0.113-2.054,0.378-3.058c0.253-1.001,0.816-2.001,1.72-2.599c0.912-0.611,2.089-0.681,3.076-0.4
					c1.006,0.258,1.916,0.729,2.768,1.257c1.703,1.069,3.184,2.398,4.62,3.723c0.716,0.664,1.429,1.326,2.14,1.986
					c0.716,0.635,1.432,1.318,2.214,1.772c0.184,0.108,0.417,0.187,0.489,0.155c0.011,0.031,0.158-0.088,0.222-0.139
					c0.083-0.065,0.155-0.14,0.218-0.219c0.26-0.311,0.318-0.741,0.267-1.182c-0.103-0.885-0.543-1.764-0.845-2.667
					c-1.291-3.589-2.383-7.203-3.059-10.859c-0.329-1.828-0.558-3.67-0.525-5.515c0.036-1.819,0.306-3.752,1.451-5.274
					c0.563-0.751,1.395-1.311,2.303-1.54c0.907-0.239,1.849-0.199,2.73-0.02c1.772,0.369,3.374,1.164,4.877,2.033
					c1.504,0.879,2.914,1.87,4.275,2.887c0.677,0.508,1.351,1.014,2.021,1.518c0.335,0.246,0.666,0.461,1.026,0.547
					c0.354,0.081,0.686-0.006,0.891-0.293c0.215-0.274,0.306-0.669,0.336-1.047c0.031-0.382-0.053-0.761-0.13-1.176
					c-0.149-0.809-0.298-1.613-0.445-2.414c-0.295-1.601-0.587-3.184-0.876-4.75c-0.577-3.132-1.141-6.194-1.691-9.183
					c-0.491-2.982-1.325-5.898-1.146-8.843c0.069-1.455,0.392-2.924,1.176-4.153c0.806-1.205,2.052-2.109,3.489-2.297
					c0.725-0.092,1.433,0.125,2.053,0.412c0.635,0.283,1.181,0.696,1.706,1.108c1.032,0.853,1.923,1.813,2.798,2.743
					c0.438,0.464,0.872,0.923,1.325,1.346c0.455,0.418,0.936,0.797,1.499,0.888c0.562,0.113,1.119-0.154,1.564-0.506
					c0.442-0.37,0.813-0.846,1.09-1.34l-0.014,0.037c1.749-6.725,3.843-12.572,5.717-17.644c1.902-5.051,3.547-9.4,5.63-12.546
					c1.061-1.546,2.123-2.847,3.261-3.736c1.128-0.895,2.259-1.409,3.216-1.604c0.959-0.198,1.72-0.116,2.196,0.011
					C427.112,175.712,427.33,175.848,427.33,175.848z"/>
			</g>
		</g>
		<g>
			<g>
				<path fill="#263238" d="M422.084,189.452c0.008,0.003-0.026,0.114-0.102,0.327c-0.087,0.238-0.2,0.548-0.345,0.94
					c-0.325,0.853-0.785,2.058-1.372,3.596c-1.213,3.149-2.948,7.653-5.088,13.206c-4.261,11.195-10.128,26.61-16.608,43.637
					c-6.464,17.056-12.375,32.473-16.756,43.593c-2.188,5.561-3.979,10.053-5.242,13.146c-0.626,1.521-1.116,2.715-1.463,3.559
					c-0.164,0.385-0.294,0.688-0.393,0.921c-0.092,0.206-0.143,0.311-0.15,0.308c-0.009-0.004,0.025-0.114,0.101-0.327
					c0.087-0.237,0.201-0.548,0.345-0.939c0.325-0.853,0.785-2.059,1.372-3.596c1.213-3.148,2.948-7.652,5.088-13.205
					c4.261-11.194,10.129-26.611,16.611-43.644c6.462-17.05,12.372-32.466,16.753-43.585c2.188-5.561,3.979-10.053,5.242-13.147
					c0.626-1.522,1.116-2.715,1.464-3.56c0.163-0.384,0.293-0.688,0.393-0.921C422.025,189.552,422.076,189.448,422.084,189.452z"/>
			</g>
		</g>
		<g>
			<g>
				<path fill="#263238" d="M422.623,223.96c0.033,0.067-0.934,0.615-2.502,1.486c-1.714,0.954-3.809,2.119-6.125,3.407
					c-2.394,1.331-4.574,2.517-6.183,3.323c-1.607,0.808-2.643,1.227-2.672,1.165c-0.031-0.068,0.94-0.602,2.498-1.489
					c1.708-0.967,3.795-2.147,6.104-3.453c2.396-1.331,4.592-2.489,6.207-3.278C421.566,224.33,422.592,223.898,422.623,223.96z"/>
			</g>
		</g>
		<g>
			<g>
				
					<ellipse transform="matrix(0.4439 0.8961 -0.8961 0.4439 421.3931 -234.0364)" fill="#263238" cx="399.252" cy="222.485" rx="11.44" ry="0.261"/>
			</g>
		</g>
		<g>
			<g>
				<path fill="#263238" d="M395.586,259.372c-0.049,0.048-0.899-0.706-2.199-2.003c-1.296-1.3-3.039-3.146-4.848-5.289
					c-1.813-2.139-3.349-4.161-4.413-5.657s-1.667-2.46-1.61-2.5c0.061-0.043,0.769,0.843,1.905,2.279
					c1.136,1.436,2.711,3.413,4.517,5.542c1.8,2.132,3.492,4.01,4.717,5.371C394.882,258.473,395.64,259.318,395.586,259.372z"/>
			</g>
		</g>
		<g>
			<g>
				<path fill="#263238" d="M413.879,255.075c0.016,0.07-0.993,0.36-2.637,0.772s-3.921,0.946-6.444,1.505s-4.814,1.036-6.478,1.356
					c-1.664,0.319-2.701,0.482-2.716,0.412c-0.016-0.07,0.992-0.359,2.636-0.771s3.922-0.947,6.445-1.506
					c2.522-0.559,4.813-1.035,6.477-1.355C412.827,255.167,413.864,255.004,413.879,255.075z"/>
			</g>
		</g>
		<g>
			<g>
				<path fill="#263238" d="M409.147,279.569c0.015,0.07-1.285,0.412-3.399,0.907c-2.113,0.495-5.041,1.144-8.281,1.829
					c-3.241,0.685-6.182,1.276-8.315,1.68c-2.133,0.402-3.46,0.617-3.475,0.546c-0.015-0.07,1.285-0.411,3.399-0.906
					c2.113-0.495,5.041-1.144,8.283-1.829c3.24-0.686,6.18-1.277,8.313-1.68C407.805,279.712,409.132,279.499,409.147,279.569z"/>
			</g>
		</g>
		<g>
			<g>
				<path fill="#263238" d="M386.205,284.254c-0.027,0.024-0.293-0.22-0.752-0.683c-0.46-0.461-1.105-1.146-1.893-2.004
					c-1.568-1.72-3.684-4.145-5.9-6.921c-2.223-2.772-4.13-5.365-5.461-7.274c-0.667-0.953-1.191-1.736-1.542-2.285
					s-0.53-0.861-0.501-0.882c0.029-0.021,0.265,0.253,0.666,0.765c0.467,0.609,1.024,1.337,1.674,2.186
					c1.405,1.851,3.354,4.4,5.57,7.166c2.212,2.769,4.276,5.225,5.771,7.003C385.335,283.101,386.26,284.204,386.205,284.254z"/>
			</g>
		</g>
	</g>
	<g>
		<g>
			<g>
				<linearGradient id="SVGID_1_" gradientUnits="userSpaceOnUse" x1="357.8374" y1="292.3921" x2="460.4243" y2="292.3921">
					<stop  offset="0" style="stop-color:#86EDD0"/>
					<stop  offset="1" style="stop-color:#60A9E6"/>
				</linearGradient>
				<path fill="url(#SVGID_1_)" d="M376.201,351.241c-17.364-13.993-19.879-37.929-17.699-59.14
					c0.363-3.541,0.23-7.309,2.132-10.308c1.903-2.997,5.987-4.854,9.063-3.142c2.55,1.422,3.488,4.566,4.789,7.202
					c1.729,3.508,4.461,6.5,7.777,8.521c2.18,1.328,4.927,2.237,7.242,1.16c3.177-1.479,3.827-5.684,4.048-9.216
					c0.41-6.581,0.82-13.163,1.23-19.743c0.221-3.531,0.457-7.136,1.784-10.41c1.328-3.274,3.967-6.22,7.389-6.931
					c3.424-0.71,7.442,1.511,7.914,5.015c0.197,1.457-0.198,2.93-0.201,4.401c-0.002,1.473,0.569,3.141,1.933,3.644
					c1.381,0.511,2.861-0.394,3.987-1.354c3.888-3.314,6.675-7.735,9.299-12.143c2.623-4.407,5.187-8.928,8.759-12.588
					c3.572-3.661,8.356-6.427,13.431-6.367c5.075,0.061,10.246,3.55,11.184,8.6c0.939,5.064-2.311,9.914-5.745,13.725
					c-5.097,5.655-11.004,10.56-17.478,14.512c-1.167,0.714-2.431,1.484-2.946,2.762c-0.928,2.301,1.142,4.791,3.411,5.724
					c2.571,1.058,5.445,0.979,8.175,1.492s5.628,1.932,6.49,4.604c1.199,3.706-2.078,7.281-5.217,9.554
					c-6.285,4.553-13.342,8.005-20.766,10.161c-2.662,0.771-5.451,1.418-7.67,3.098c-2.22,1.682-3.7,4.767-2.606,7.34
					c1.096,2.576,4.287,3.594,7.042,3.275c2.753-0.317,5.289-1.627,7.948-2.427c4.977-1.498,11.217-0.734,14.037,3.671
					c1.853,2.896,1.77,6.745,0.511,9.959c-1.257,3.214-3.546,5.899-5.949,8.356c-8.4,8.588-18.856,15.248-30.377,18.378
					C397.602,355.756,387.103,356.097,376.201,351.241"/>
			</g>
		</g>
		<g opacity="0.1">
			<g>
				<path d="M376.201,351.241c-17.364-13.993-19.879-37.929-17.699-59.14c0.363-3.541,0.23-7.309,2.132-10.308
					c1.903-2.997,5.987-4.854,9.063-3.142c2.55,1.422,3.488,4.566,4.789,7.202c1.729,3.508,4.461,6.5,7.777,8.521
					c2.18,1.328,4.927,2.237,7.242,1.16c3.177-1.479,3.827-5.684,4.048-9.216c0.41-6.581,0.82-13.163,1.23-19.743
					c0.221-3.531,0.457-7.136,1.784-10.41c1.328-3.274,3.967-6.22,7.389-6.931c3.424-0.71,7.442,1.511,7.914,5.015
					c0.197,1.457-0.198,2.93-0.201,4.401c-0.002,1.473,0.569,3.141,1.933,3.644c1.381,0.511,2.861-0.394,3.987-1.354
					c3.888-3.314,6.675-7.735,9.299-12.143c2.623-4.407,5.187-8.928,8.759-12.588c3.572-3.661,8.356-6.427,13.431-6.367
					c5.075,0.061,10.246,3.55,11.184,8.6c0.939,5.064-2.311,9.914-5.745,13.725c-5.097,5.655-11.004,10.56-17.478,14.512
					c-1.167,0.714-2.431,1.484-2.946,2.762c-0.928,2.301,1.142,4.791,3.411,5.724c2.571,1.058,5.445,0.979,8.175,1.492
					s5.628,1.932,6.49,4.604c1.199,3.706-2.078,7.281-5.217,9.554c-6.285,4.553-13.342,8.005-20.766,10.161
					c-2.662,0.771-5.451,1.418-7.67,3.098c-2.22,1.682-3.7,4.767-2.606,7.34c1.096,2.576,4.287,3.594,7.042,3.275
					c2.753-0.317,5.289-1.627,7.948-2.427c4.977-1.498,11.217-0.734,14.037,3.671c1.853,2.896,1.77,6.745,0.511,9.959
					c-1.257,3.214-3.546,5.899-5.949,8.356c-8.4,8.588-18.856,15.248-30.377,18.378
					C397.602,355.756,387.103,356.097,376.201,351.241"/>
			</g>
		</g>
		<g>
			<g>
				<g>
					<path fill="#263238" d="M374.841,366.984c1.348-8.37,3.877-18.189,7.763-28.694c3.865-10.515,9.058-21.689,14.89-33.19
						c1.469-2.869,2.921-5.705,4.351-8.499c1.434-2.786,2.856-5.55,4.414-8.167c3.094-5.248,6.468-10.058,9.814-14.523
						c3.345-4.469,6.682-8.587,9.83-12.415c3.158-3.823,6.168-7.331,9.049-10.411c5.743-6.184,10.956-10.614,14.659-13.509
						c1.849-1.454,3.319-2.535,4.327-3.254c0.484-0.341,0.864-0.609,1.15-0.811c0.261-0.179,0.398-0.267,0.404-0.257
						c0.008,0.009-0.117,0.115-0.365,0.312c-0.276,0.214-0.645,0.5-1.112,0.862c-0.98,0.753-2.426,1.866-4.249,3.348
						c-3.649,2.954-8.796,7.421-14.479,13.626c-2.852,3.092-5.835,6.608-8.969,10.441c-3.128,3.841-6.445,7.965-9.77,12.432
						c-3.323,4.465-6.674,9.265-9.743,14.488c-1.545,2.604-2.952,5.345-4.388,8.139c-1.429,2.794-2.878,5.628-4.345,8.496
						c-5.828,11.492-11.023,22.632-14.909,33.104c-3.903,10.461-6.469,20.229-7.869,28.559"/>
				</g>
			</g>
		</g>
		<g>
			<g>
				<g>
					<path fill="#263238" d="M406.446,288.421c-0.045,0.004-0.128-0.541-0.241-1.529c-0.119-0.988-0.243-2.423-0.37-4.198
						c-0.259-3.549-0.447-8.461-0.635-13.878c-0.188-5.421-0.446-10.316-0.758-13.851c-0.15-1.768-0.287-3.198-0.394-4.185
						c-0.102-0.988-0.137-1.539-0.093-1.546c0.045-0.007,0.164,0.53,0.343,1.51c0.185,0.979,0.391,2.404,0.6,4.172
						c0.431,3.535,0.764,8.448,0.95,13.873c0.172,5.346,0.327,10.183,0.445,13.878c0.064,1.669,0.119,3.075,0.163,4.204
						C406.492,287.865,406.491,288.417,406.446,288.421z"/>
				</g>
			</g>
		</g>
		<g>
			<g>
				<g>
					<path fill="#263238" d="M452.408,283.053c-0.002,0.045-0.652,0.075-1.825,0.093c-1.171,0.023-2.867,0.049-4.96,0.147
						c-4.187,0.163-9.963,0.592-16.315,1.343c-6.353,0.764-12.071,1.698-16.188,2.494c-2.063,0.384-3.723,0.739-4.872,0.978
						c-1.148,0.243-1.789,0.356-1.801,0.313c-0.011-0.045,0.609-0.242,1.742-0.563c1.134-0.314,2.783-0.74,4.84-1.184
						c4.105-0.915,9.834-1.927,16.205-2.692c6.371-0.753,12.175-1.11,16.378-1.154c2.102-0.039,3.803,0.006,4.977,0.063
						C451.761,282.952,452.409,283.006,452.408,283.053z"/>
				</g>
			</g>
		</g>
		<g>
			<g>
				<g>
					<path fill="#263238" d="M383.219,337.493c-0.021,0.008-0.115-0.189-0.273-0.574c-0.18-0.459-0.398-1.019-0.664-1.695
						c-0.569-1.475-1.338-3.63-2.252-6.305c-1.833-5.349-4.132-12.817-6.558-21.092c-2.428-8.279-4.654-15.759-6.372-21.138
						c-0.844-2.615-1.538-4.767-2.055-6.366c-0.22-0.693-0.4-1.266-0.549-1.735c-0.118-0.398-0.171-0.612-0.149-0.621
						c0.021-0.007,0.114,0.191,0.273,0.576c0.179,0.458,0.397,1.017,0.663,1.693c0.569,1.475,1.338,3.63,2.253,6.305
						c1.832,5.349,4.132,12.817,6.558,21.096c2.427,8.276,4.653,15.755,6.372,21.135c0.845,2.614,1.538,4.768,2.054,6.365
						c0.22,0.694,0.4,1.267,0.549,1.735C383.188,337.272,383.241,337.485,383.219,337.493z"/>
				</g>
			</g>
		</g>
		<g>
			<g>
				<g>
					<path fill="#263238" d="M444.855,322.194c0.004,0.022-0.208,0.093-0.615,0.206c-0.482,0.126-1.074,0.279-1.792,0.467
						c-1.653,0.413-3.886,0.972-6.601,1.649c-5.574,1.395-13.25,3.408-21.729,5.646c-8.481,2.238-16.184,4.184-21.787,5.462
						c-2.802,0.641-5.074,1.137-6.651,1.446c-0.729,0.139-1.329,0.253-1.817,0.347c-0.418,0.072-0.64,0.099-0.644,0.076
						c-0.005-0.022,0.207-0.092,0.615-0.207c0.48-0.124,1.073-0.278,1.791-0.465c1.654-0.414,3.885-0.971,6.601-1.65
						c5.573-1.394,13.25-3.408,21.731-5.646c8.479-2.238,16.18-4.183,21.784-5.462c2.802-0.641,5.073-1.136,6.651-1.445
						c0.729-0.139,1.329-0.255,1.818-0.347C444.628,322.199,444.849,322.172,444.855,322.194z"/>
				</g>
			</g>
		</g>
	</g>
</g>
<g id="Checklist">
	<g>
		<g>
			<rect x="137.733" y="75.191" fill="#455A64" width="242.507" height="332.304"/>
		</g>
		<g>
			<polygon fill="#E0E0E0" points="370.654,387.73 325.739,387.73 157.926,387.73 157.926,88.622 370.654,88.622 370.654,350.519 
							"/>
		</g>
		<g>
			<polygon fill="#EBEBEB" points="367.293,382.181 322.784,382.181 156.482,382.181 156.482,84.666 367.293,84.666 
				367.293,345.168 			"/>
		</g>
		<g>
			<g>
				<polygon fill="#FAFAFA" points="344.641,359.028 320.36,378.799 152.546,378.799 152.546,85.421 365.275,85.421 
					365.275,342.301 				"/>
			</g>
			<g>
				<g>
					<path fill="#263238" d="M344.641,359.028c0,0,0.43-0.366,1.296-1.078c0.872-0.713,2.17-1.774,3.89-3.181
						c3.456-2.813,8.604-7.004,15.396-12.532l-0.03,0.064c-0.025-42.196-0.081-135.957-0.152-256.88l0.235,0.235
						c-63.347,0.007-135.121,0.016-210.872,0.025c-0.625,0-1.25,0-1.857,0l0.26-0.26c-0.02,110.295-0.037,212.045-0.052,293.378
						l-0.208-0.209c76.603,0.055,135.449,0.097,167.814,0.12l-0.057,0.02c8.099-6.569,14.177-11.499,18.234-14.791
						c2.028-1.639,3.55-2.868,4.569-3.692C344.125,359.428,344.641,359.028,344.641,359.028s-0.497,0.425-1.505,1.255
						c-1.013,0.832-2.525,2.073-4.541,3.727c-4.046,3.307-10.105,8.26-18.18,14.859l-0.024,0.02h-0.031
						c-32.365,0.023-91.211,0.065-167.814,0.12h-0.208v-0.209c-0.014-81.333-0.032-183.083-0.052-293.378v-0.26h0.26
						c0.606,0,1.232,0,1.857,0c75.751,0.009,147.525,0.018,210.872,0.025h0.235v0.235c-0.072,120.923-0.128,214.684-0.152,256.88
						v0.04l-0.031,0.024c-6.813,5.501-11.979,9.671-15.446,12.47c-1.731,1.392-3.038,2.441-3.916,3.147
						C345.088,358.683,344.641,359.028,344.641,359.028z"/>
				</g>
			</g>
		</g>
		<g>
			<linearGradient id="SVGID_2_" gradientUnits="userSpaceOnUse" x1="215.4541" y1="79.8408" x2="302.5181" y2="79.8408">
				<stop  offset="0" style="stop-color:#86EDD0"/>
				<stop  offset="1" style="stop-color:#60A9E6"/>
			</linearGradient>
			<path fill="url(#SVGID_2_)" d="M302.518,94.764h-87.064V79.675c0-8.15,6.607-14.758,14.757-14.758h58.152
				c7.817,0,14.154,6.337,14.154,14.154V94.764z"/>
		</g>
		<g>
			<linearGradient id="SVGID_3_" gradientUnits="userSpaceOnUse" x1="233.5957" y1="56.8677" x2="283.7251" y2="56.8677">
				<stop  offset="0" style="stop-color:#86EDD0"/>
				<stop  offset="1" style="stop-color:#60A9E6"/>
			</linearGradient>
			<polygon fill="url(#SVGID_3_)" points="236.778,64.917 233.596,48.818 283.725,48.818 280.94,64.917 			"/>
		</g>
		<g>
			<g>
				<linearGradient id="SVGID_4_" gradientUnits="userSpaceOnUse" x1="174.7959" y1="150.0806" x2="210.6348" y2="150.0806">
					<stop  offset="0" style="stop-color:#86EDD0"/>
					<stop  offset="1" style="stop-color:#60A9E6"/>
				</linearGradient>
				<path fill="url(#SVGID_4_)" d="M210.635,168h-35.839v-35.839h35.839V168z M175.796,167h33.839v-33.839h-33.839V167z"/>
			</g>
			<g>
				<g>
					<path fill="#263238" d="M337.278,140.816c0,0.144-24.947,0.26-55.713,0.26c-30.776,0-55.718-0.117-55.718-0.26
						c0-0.144,24.941-0.261,55.718-0.261C312.331,140.555,337.278,140.672,337.278,140.816z"/>
				</g>
			</g>
			<g>
				<g>
					<path fill="#263238" d="M337.278,148.263c0,0.144-24.947,0.26-55.713,0.26c-30.776,0-55.718-0.117-55.718-0.26
						c0-0.144,24.941-0.261,55.718-0.261C312.331,148.002,337.278,148.119,337.278,148.263z"/>
				</g>
			</g>
			<g>
				<g>
					<path fill="#263238" d="M337.278,155.71c0,0.144-24.947,0.26-55.713,0.26c-30.776,0-55.718-0.117-55.718-0.26
						c0-0.144,24.941-0.261,55.718-0.261C312.331,155.45,337.278,155.566,337.278,155.71z"/>
				</g>
			</g>
			<g>
				<g>
					<path fill="#263238" d="M337.278,163.158c0,0.144-24.947,0.26-55.713,0.26c-30.776,0-55.718-0.117-55.718-0.26
						c0-0.144,24.941-0.261,55.718-0.261C312.331,162.897,337.278,163.014,337.278,163.158z"/>
				</g>
			</g>
		</g>
		<g>
			<g>
				<linearGradient id="SVGID_5_" gradientUnits="userSpaceOnUse" x1="174.7959" y1="205.314" x2="210.6348" y2="205.314">
					<stop  offset="0" style="stop-color:#86EDD0"/>
					<stop  offset="1" style="stop-color:#60A9E6"/>
				</linearGradient>
				<path fill="url(#SVGID_5_)" d="M210.635,223.233h-35.839v-35.838h35.839V223.233z M175.796,222.233h33.839v-33.838h-33.839
					V222.233z"/>
			</g>
			<g>
				<linearGradient id="SVGID_6_" gradientUnits="userSpaceOnUse" x1="181.9229" y1="203.4966" x2="217.1079" y2="203.4966">
					<stop  offset="0" style="stop-color:#86EDD0"/>
					<stop  offset="1" style="stop-color:#60A9E6"/>
				</linearGradient>
				<polygon fill="url(#SVGID_6_)" points="181.923,206.051 186.681,200.941 194.61,207.285 212.76,189.664 217.108,194.789 
					194.257,217.329 				"/>
			</g>
			<g>
				<g>
					<path fill="#263238" d="M337.278,196.049c0,0.144-24.947,0.26-55.713,0.26c-30.776,0-55.718-0.117-55.718-0.26
						c0-0.144,24.941-0.261,55.718-0.261C312.331,195.789,337.278,195.905,337.278,196.049z"/>
				</g>
			</g>
			<g>
				<g>
					<path fill="#263238" d="M337.278,203.497c0,0.144-24.947,0.26-55.713,0.26c-30.776,0-55.718-0.117-55.718-0.26
						c0-0.144,24.941-0.261,55.718-0.261C312.331,203.236,337.278,203.353,337.278,203.497z"/>
				</g>
			</g>
			<g>
				<g>
					<path fill="#263238" d="M337.278,210.944c0,0.144-24.947,0.26-55.713,0.26c-30.776,0-55.718-0.117-55.718-0.26
						c0-0.144,24.941-0.261,55.718-0.261C312.331,210.683,337.278,210.8,337.278,210.944z"/>
				</g>
			</g>
			<g>
				<g>
					<path fill="#263238" d="M337.278,218.391c0,0.144-24.947,0.26-55.713,0.26c-30.776,0-55.718-0.117-55.718-0.26
						c0-0.144,24.941-0.261,55.718-0.261C312.331,218.13,337.278,218.247,337.278,218.391z"/>
				</g>
			</g>
		</g>
		<g>
			<g>
				<linearGradient id="SVGID_7_" gradientUnits="userSpaceOnUse" x1="174.7959" y1="258.7622" x2="210.6348" y2="258.7622">
					<stop  offset="0" style="stop-color:#86EDD0"/>
					<stop  offset="1" style="stop-color:#60A9E6"/>
				</linearGradient>
				<path fill="url(#SVGID_7_)" d="M210.635,276.681h-35.839v-35.839h35.839V276.681z M175.796,275.681h33.839v-33.839h-33.839
					V275.681z"/>
			</g>
			<g>
				<linearGradient id="SVGID_8_" gradientUnits="userSpaceOnUse" x1="181.9229" y1="256.9438" x2="217.1079" y2="256.9438">
					<stop  offset="0" style="stop-color:#86EDD0"/>
					<stop  offset="1" style="stop-color:#60A9E6"/>
				</linearGradient>
				<polygon fill="url(#SVGID_8_)" points="181.923,259.5 186.681,254.389 194.61,260.733 212.76,243.112 217.108,248.236 
					194.257,270.777 				"/>
			</g>
			<g>
				<g>
					<path fill="#263238" d="M337.278,249.497c0,0.144-24.947,0.26-55.713,0.26c-30.776,0-55.718-0.116-55.718-0.26
						c0-0.144,24.941-0.26,55.718-0.26C312.331,249.237,337.278,249.354,337.278,249.497z"/>
				</g>
			</g>
			<g>
				<g>
					<path fill="#263238" d="M337.278,256.945c0,0.144-24.947,0.26-55.713,0.26c-30.776,0-55.718-0.116-55.718-0.26
						c0-0.145,24.941-0.261,55.718-0.261C312.331,256.684,337.278,256.8,337.278,256.945z"/>
				</g>
			</g>
			<g>
				<g>
					<path fill="#263238" d="M337.278,264.392c0,0.144-24.947,0.26-55.713,0.26c-30.776,0-55.718-0.116-55.718-0.26
						c0-0.145,24.941-0.261,55.718-0.261C312.331,264.131,337.278,264.248,337.278,264.392z"/>
				</g>
			</g>
			<g>
				<g>
					<path fill="#263238" d="M337.278,271.839c0,0.144-24.947,0.26-55.713,0.26c-30.776,0-55.718-0.116-55.718-0.26
						c0-0.145,24.941-0.261,55.718-0.261C312.331,271.579,337.278,271.695,337.278,271.839z"/>
				</g>
			</g>
		</g>
		<g>
			<g>
				<linearGradient id="SVGID_9_" gradientUnits="userSpaceOnUse" x1="174.7959" y1="310.3677" x2="210.6348" y2="310.3677">
					<stop  offset="0" style="stop-color:#86EDD0"/>
					<stop  offset="1" style="stop-color:#60A9E6"/>
				</linearGradient>
				<path fill="url(#SVGID_9_)" d="M210.635,328.287h-35.839v-35.839h35.839V328.287z M175.796,327.287h33.839v-33.839h-33.839
					V327.287z"/>
			</g>
			<g>
				<linearGradient id="SVGID_10_" gradientUnits="userSpaceOnUse" x1="181.9229" y1="308.5493" x2="217.1079" y2="308.5493">
					<stop  offset="0" style="stop-color:#86EDD0"/>
					<stop  offset="1" style="stop-color:#60A9E6"/>
				</linearGradient>
				<polygon fill="url(#SVGID_10_)" points="181.923,311.105 186.681,305.995 194.61,312.338 212.76,294.717 217.108,299.842 
					194.257,322.382 				"/>
			</g>
			<g>
				<g>
					<path fill="#263238" d="M337.278,301.103c0,0.144-24.947,0.26-55.713,0.26c-30.776,0-55.718-0.116-55.718-0.26
						c0-0.145,24.941-0.261,55.718-0.261C312.331,300.842,337.278,300.958,337.278,301.103z"/>
				</g>
			</g>
			<g>
				<g>
					<path fill="#263238" d="M337.278,308.55c0,0.144-24.947,0.26-55.713,0.26c-30.776,0-55.718-0.116-55.718-0.26
						c0-0.145,24.941-0.261,55.718-0.261C312.331,308.29,337.278,308.406,337.278,308.55z"/>
				</g>
			</g>
			<g>
				<g>
					<path fill="#263238" d="M337.278,315.998c0,0.144-24.947,0.26-55.713,0.26c-30.776,0-55.718-0.116-55.718-0.26
						c0-0.145,24.941-0.261,55.718-0.261C312.331,315.737,337.278,315.853,337.278,315.998z"/>
				</g>
			</g>
			<g>
				<g>
					<path fill="#263238" d="M337.278,323.445c0,0.144-24.947,0.26-55.713,0.26c-30.776,0-55.718-0.116-55.718-0.26
						c0-0.145,24.941-0.261,55.718-0.261C312.331,323.184,337.278,323.3,337.278,323.445z"/>
				</g>
			</g>
		</g>
		<g>
			<polygon fill="#E0E0E0" points="327.031,330.226 303.708,378.527 320.36,378.527 			"/>
		</g>
		<g>
			<g>
				<polygon fill="#FAFAFA" points="320.36,378.799 327.031,330.499 365.275,342.301 				"/>
			</g>
			<g>
				<g>
					<path fill="#263238" d="M320.36,378.799c0.938-0.773,5.067-4.171,12.86-10.586c7.992-6.542,19.145-15.673,31.894-26.109
						l0.086,0.44c-4.744-1.462-9.691-2.987-14.766-4.551c-8.277-2.561-16.219-5.017-23.476-7.261l0.314-0.201
						c-1.998,14.03-3.711,26.049-4.928,34.592C321.139,373.429,320.517,377.716,320.36,378.799
						c-0.004,0.006,0.004-0.066,0.021-0.214c0.021-0.173,0.05-0.393,0.084-0.669c0.082-0.626,0.197-1.504,0.344-2.63
						c0.31-2.347,0.755-5.72,1.314-9.956c1.151-8.611,2.772-20.725,4.664-34.865l0.038-0.286l0.277,0.085
						c7.26,2.235,15.204,4.682,23.484,7.231c5.073,1.568,10.02,3.097,14.762,4.563l0.458,0.142l-0.372,0.299
						c-12.903,10.408-24.191,19.514-32.28,26.038c-3.994,3.21-7.196,5.783-9.426,7.575c-1.078,0.863-1.919,1.538-2.515,2.016
						c-0.268,0.213-0.48,0.382-0.644,0.512C320.427,378.751,320.356,378.806,320.36,378.799z"/>
				</g>
			</g>
		</g>
		<g opacity="0.3">
			<polyline points="280.262,48.818 277.498,64.917 280.94,64.917 283.725,48.818 279.34,48.818 			"/>
		</g>
	</g>
</g>
<g id="Character">
	<g>
		<g>
			<g>
				<g>
					<g>
						<g>
							<g>
								<g>
									<path fill="#FFBE9D" d="M133.428,218.623L133.428,218.623c5.088,0.391,9.48-3.525,9.677-8.625
										c0.188-4.897,0.353-9.847,0.353-9.847s7.42-0.695,7.958-8.039c0.538-7.344,0.292-24.297,0.292-24.297l0,0
										c-8.285-4.174-18.18-3.538-25.861,1.663l0.458,25.845v13.905C126.353,213.892,128.777,218.266,133.428,218.623z"/>
								</g>
							</g>
						</g>
					</g>
				</g>
			</g>
			<g>
				<path fill="#263238" d="M144.096,183.147c-1.267-1.57-3.327-2.195-5.018-1.095c-1.692,1.099-2.343,3.542-1.422,5.336
					c0.649,1.267,2.128,2.415,3.603,2.724c1.386,0.291,2.37,1.629,2.208,3.037c-0.211,1.843-1.194,3.588-2.578,5.114
					c-2.152,2.373-5.319,3.651-8.5,4.027c-3.127,0.37-6.71-0.282-8.53-2.853c-1.324-1.871-1.419-4.315-1.467-6.606
					c-0.112-5.415-0.224-10.829-0.336-16.244c-0.04-1.952-0.078-3.928,0.37-5.828s1.443-3.747,3.074-4.82
					c1.786-1.175,4.049-1.276,6.083-1.934c2.543-0.823,4.703-2.51,7.083-3.727s5.297-1.945,7.686-0.746
					c1.714,0.861,2.864,2.572,4.532,3.521c2.375,1.35,5.606,1.043,6.759,4.535c0.398,1.206,0.368,2.531-0.04,3.734
					c-1.61,4.75-7.494,6.666-11.732,4.613c-0.083,0.805,0.709,2.595-0.138,5.137C145.462,181.885,145.366,183.124,144.096,183.147"
					/>
			</g>
			<g>
				<path fill="#263238" d="M123.831,168.03c1.042-2.374,2.097-4.797,2.359-7.376c0.263-2.58-0.393-5.389-2.314-7.129
					c-1.3-1.177-3.087-1.764-4.841-1.712c-3.356,0.098-6.464,2.616-7.379,5.847s0.348,6.932,2.968,9.033
					c2.62,2.101,6.422,2.55,9.514,1.241"/>
			</g>
			<g>
				<g>
					<path fill="#E8505B" d="M125.273,165.352c0.139-0.003,0.021,1.307-1.083,2.373c-1.092,1.078-2.404,1.166-2.397,1.026
						c-0.035-0.149,1.076-0.442,2.034-1.399C124.806,166.417,125.126,165.313,125.273,165.352z"/>
				</g>
			</g>
			<g>
				<g>
					<path fill="#263238" d="M122.858,167.146c0.029,0.042-0.648,0.7-1.994,1.458c-0.675,0.358-1.567,0.729-2.628,0.744
						c-1.025,0.022-2.306-0.325-3.065-1.375c-0.75-1.04-0.778-2.317-0.543-3.32c0.245-1.033,0.772-1.822,1.235-2.431
						c0.967-1.198,1.698-1.788,1.738-1.752c0.068,0.058-0.579,0.754-1.44,1.969c-0.41,0.612-0.872,1.387-1.064,2.318
						c-0.191,0.918-0.132,2.048,0.495,2.909c0.621,0.868,1.71,1.196,2.644,1.203c0.952,0.013,1.794-0.289,2.465-0.594
						C122.038,167.628,122.809,167.069,122.858,167.146z"/>
				</g>
			</g>
			<g>
				<g>
					<path fill="#263238" d="M110.375,175.441c0.036-0.011,0.154,0.284,0.358,0.813c0.211,0.522,0.49,1.308,1.082,2.093
						c0.573,0.754,1.632,1.564,2.876,1.322c1.232-0.235,2.323-1.37,2.767-2.786c0.477-1.428,0.511-2.922,0.751-4.267
						c0.221-1.344,0.671-2.571,1.402-3.365c0.713-0.796,1.557-1.146,2.138-1.219c0.59-0.082,0.907,0.058,0.899,0.077
						c-0.004,0.05-0.325-0.014-0.861,0.123c-0.529,0.126-1.275,0.498-1.897,1.26c-0.628,0.749-1.019,1.895-1.208,3.202
						c-0.211,1.305-0.223,2.818-0.732,4.357c-0.482,1.532-1.708,2.842-3.176,3.09c-0.728,0.131-1.448-0.06-1.991-0.385
						c-0.55-0.327-0.961-0.759-1.266-1.191c-0.599-0.879-0.822-1.701-0.978-2.248C110.395,175.764,110.343,175.452,110.375,175.441z
						"/>
				</g>
			</g>
		</g>
		<g>
			<path fill="#FFBE9D" d="M106.768,237.134c0,0-3.743,27.42,0,30.896c3.743,3.476,7.346,2.322,7.346,2.322l7.127-5.96l1.403-27.258
				H106.768z"/>
		</g>
		<g>
			<g>
				<linearGradient id="SVGID_11_" gradientUnits="userSpaceOnUse" x1="184.2227" y1="157.604" x2="219.4077" y2="157.604">
					<stop  offset="0" style="stop-color:#86EDD0"/>
					<stop  offset="1" style="stop-color:#60A9E6"/>
				</linearGradient>
				<polygon fill="url(#SVGID_11_)" points="184.223,160.159 188.98,155.049 196.91,161.393 215.06,143.771 219.408,148.896 
					196.558,171.437 				"/>
			</g>
			<g>
				<path fill="#FFBE9D" d="M206.58,161.551l-6.9,4.428c-0.312-2.727-2.394-5.431-2.287-4.061c0.107,1.37,0.013,8.478,0.013,8.478
					l-12.305,25.892c-1.672,4.102-5.06,6.681-7.592,7.289l-11.486,3.416l4.49,15.185l15.964-5.293
					c4.142-1.374,7.388-4.629,8.749-8.775l11.005-33.523c0,0,1.307-3.812,1.778-6.605
					C208.479,165.187,206.58,161.551,206.58,161.551z"/>
			</g>
		</g>
		<g>
			<g>
				<g>
					<g>
						<g>
							<g>
								<path fill="#E8505B" d="M150.045,444.725l-0.171-7.678l-14.384,0.229l0.133,11.235l0.893,0.043
									c3.973,0.157,20.209,0.518,22.85-0.329C162.311,447.282,150.045,444.725,150.045,444.725z"/>
							</g>
						</g>
					</g>
					<g opacity="0.5">
						<g>
							<g>
								<path fill="#FFFFFF" d="M140.836,448.316c-0.224-1.198-0.91-2.305-1.884-3.037c-0.974-0.733-2.165-1.109-3.378-0.992
									l0.061,4.02L140.836,448.316z"/>
							</g>
						</g>
					</g>
				</g>
				<g opacity="0.4">
					<g>
						<g>
							<path fill="#FFFFFF" d="M156.042,446.187c0,0,4.303,1.167,3.78,1.881s-16.945,0.967-24.199,0.444l0.018-0.322l19.158-0.131
								C154.799,448.059,155.205,446.235,156.042,446.187z"/>
						</g>
					</g>
				</g>
				<g>
					<g>
						<g>
							<g>
								<path fill="#263238" d="M135.415,448.185c0,0.006,0.085,0.014,0.248,0.022c0.213,0.01,0.447,0.021,0.711,0.032
									c0.711,0.02,1.584,0.044,2.616,0.072c2.209,0.046,5.262,0.068,8.634,0.02c3.373-0.05,6.424-0.162,8.631-0.271
									c1.03-0.059,1.903-0.108,2.612-0.149c0.264-0.02,0.497-0.036,0.71-0.053c0.162-0.014,0.247-0.023,0.247-0.03
									c0-0.006-0.086-0.007-0.249-0.005c-0.214,0.007-0.447,0.013-0.711,0.021c-0.71,0.025-1.583,0.057-2.614,0.094
									c-2.207,0.078-5.257,0.17-8.628,0.22c-3.37,0.049-6.421,0.046-8.63,0.032c-1.031-0.007-1.905-0.013-2.616-0.017
									c-0.264,0-0.498,0-0.712,0.001C135.5,448.175,135.415,448.179,135.415,448.185z"/>
							</g>
						</g>
					</g>
				</g>
				<g>
					<g>
						<g>
							<g>
								<path fill="#263238" d="M154.798,448.283c0.053,0.006,0.084-0.619,0.469-1.256c0.374-0.643,0.906-0.97,0.876-1.015
									c-0.011-0.043-0.624,0.238-1.026,0.926C154.707,447.622,154.755,448.293,154.798,448.283z"/>
							</g>
						</g>
					</g>
				</g>
				<g>
					<g>
						<g>
							<g>
								
									<ellipse transform="matrix(-0.5227 0.8525 -0.8525 -0.5227 609.6396 549.849)" fill="#263238" cx="150.892" cy="445.59" rx="0.709" ry="0.087"/>
							</g>
						</g>
					</g>
				</g>
				<g>
					<g>
						<g>
							<g>
								
									<ellipse transform="matrix(-0.7335 0.6797 -0.6797 -0.7335 562.2498 669.9207)" fill="#263238" cx="149.79" cy="445.187" rx="0.603" ry="0.087"/>
							</g>
						</g>
					</g>
				</g>
				<g>
					<g>
						<g>
							<g>
								<ellipse fill="#263238" cx="149.342" cy="444.248" rx="0.752" ry="0.087"/>
							</g>
						</g>
					</g>
				</g>
				<g>
					<g>
						<g>
							<g>
								<path fill="#263238" d="M148.323,443.297c-0.016,0.043,0.353,0.202,0.841,0.23c0.488,0.03,0.873-0.084,0.863-0.129
									c-0.009-0.05-0.389-0.016-0.853-0.045C148.71,443.328,148.337,443.249,148.323,443.297z"/>
							</g>
						</g>
					</g>
				</g>
				<g>
					<g>
						<g>
							<g>
								<path fill="#263238" d="M150.99,444.932c0,0.02,0.355,0.058,0.924-0.02c0.284-0.039,0.62-0.111,0.98-0.232
									c0.179-0.066,0.367-0.118,0.56-0.24c0.09-0.063,0.19-0.15,0.224-0.291c0.036-0.139-0.041-0.293-0.146-0.367
									c-0.891-0.444-1.768,0.066-2.089,0.528c-0.177,0.235-0.256,0.464-0.292,0.621c-0.034,0.158-0.03,0.249-0.02,0.25
									c0.033,0.012,0.057-0.365,0.409-0.795c0.173-0.211,0.438-0.417,0.781-0.525c0.325-0.102,0.789-0.135,1.103,0.059
									c0.148,0.106,0.094,0.279-0.068,0.379c-0.15,0.101-0.347,0.164-0.516,0.23c-0.348,0.126-0.672,0.209-0.948,0.262
									C151.342,444.898,150.989,444.904,150.99,444.932z"/>
							</g>
						</g>
					</g>
				</g>
				<g>
					<g>
						<g>
							<g>
								<path fill="#263238" d="M151.23,444.974c0.013,0.011,0.146-0.228,0.097-0.643c-0.025-0.204-0.104-0.445-0.263-0.672
									c-0.167-0.202-0.38-0.481-0.777-0.459c-0.214,0.03-0.314,0.276-0.278,0.431c0.02,0.162,0.094,0.3,0.164,0.411
									c0.141,0.229,0.299,0.413,0.445,0.553c0.294,0.278,0.524,0.383,0.535,0.365c0.016-0.022-0.187-0.163-0.446-0.451
									c-0.129-0.145-0.27-0.328-0.396-0.549c-0.13-0.193-0.222-0.543,0.009-0.589c0.231-0.025,0.471,0.201,0.615,0.383
									c0.148,0.198,0.232,0.412,0.271,0.598C151.282,444.727,151.199,444.968,151.23,444.974z"/>
							</g>
						</g>
					</g>
				</g>
				<g>
					<g>
						<g>
							<g>
								<path fill="#263238" d="M135.648,444.245c0.003,0.033,0.411-0.045,1.063,0.021c0.645,0.062,1.545,0.313,2.333,0.92
									c0.788,0.609,1.257,1.416,1.48,2.025c0.229,0.613,0.257,1.027,0.289,1.022c0.011-0.001,0.014-0.104-0.004-0.29
									c-0.018-0.187-0.066-0.454-0.169-0.773c-0.198-0.636-0.668-1.487-1.49-2.122c-0.822-0.634-1.765-0.874-2.43-0.905
									c-0.335-0.019-0.606,0.003-0.791,0.032S135.646,444.235,135.648,444.245z"/>
							</g>
						</g>
					</g>
				</g>
				<g>
					<g>
						<g>
							<g>
								
									<ellipse transform="matrix(-0.0026 -1 1 -0.0026 -303.7744 579.4131)" fill="#263238" cx="137.055" cy="441.193" rx="2.956" ry="0.087"/>
							</g>
						</g>
					</g>
				</g>
				<g>
					<g>
						<g>
							<g>
								<path fill="#263238" d="M142.625,446.885c-0.005,0.046,0.934,0.185,2.103,0.177c1.169-0.006,2.107-0.156,2.101-0.201
									c-0.006-0.051-0.944,0.021-2.102,0.026C143.569,446.896,142.629,446.835,142.625,446.885z"/>
							</g>
						</g>
					</g>
				</g>
				<g>
					<g>
						<g>
							<g>
								<path fill="#263238" d="M139.806,446.924c-0.035,0.036,0.08,0.198,0.179,0.412c0.102,0.213,0.154,0.404,0.204,0.4
									c0.046-0.001,0.07-0.229-0.046-0.475C140.027,447.015,139.836,446.889,139.806,446.924z"/>
							</g>
						</g>
					</g>
				</g>
				<g>
					<g>
						<g>
							<g>
								
									<ellipse transform="matrix(-0.7131 -0.701 0.701 -0.7131 -74.466 861.3027)" fill="#263238" cx="138.996" cy="445.888" rx="0.384" ry="0.087"/>
							</g>
						</g>
					</g>
				</g>
				<g>
					<g>
						<g>
							<g>
								<path fill="#263238" d="M137.193,445.039c0.011,0.049,0.202,0.044,0.415,0.115c0.214,0.065,0.366,0.181,0.403,0.147
									c0.038-0.026-0.086-0.229-0.35-0.313C137.397,444.902,137.178,444.994,137.193,445.039z"/>
							</g>
						</g>
					</g>
				</g>
				<g>
					<g>
						<g>
							<g>
								
									<ellipse transform="matrix(-0.9376 -0.3477 0.3477 -0.9376 109.4892 909.3462)" fill="#263238" cx="136.324" cy="444.851" rx="0.232" ry="0.087"/>
							</g>
						</g>
					</g>
				</g>
			</g>
		</g>
		<g>
			<g>
				<g>
					<g>
						<g>
							<g>
								<path fill="#E8505B" d="M99.289,442.269l4.877-5.933l-11.054-9.206l-7.227,8.604l0.648,0.614
									c2.909,2.71,14.982,13.573,17.536,14.653C106.918,452.206,99.289,442.269,99.289,442.269z"/>
							</g>
						</g>
					</g>
					<g opacity="0.5">
						<g>
							<g>
								<path fill="#FFFFFF" d="M89.965,438.985c0.611-1.055,0.813-2.341,0.552-3.531c-0.26-1.191-0.918-2.253-1.915-2.956
									l-2.575,3.088L89.965,438.985z"/>
							</g>
						</g>
					</g>
				</g>
				<g opacity="0.4">
					<g>
						<g>
							<path fill="#FFFFFF" d="M102.88,447.288c0,0,2.501,3.691,1.639,3.892s-13.476-10.319-18.634-15.445l0.224-0.232
								l14.608,12.396C100.717,447.897,102.214,446.779,102.88,447.288z"/>
						</g>
					</g>
				</g>
				<g>
					<g>
						<g>
							<g>
								<path fill="#263238" d="M85.941,435.35c-0.004,0.005,0.056,0.066,0.173,0.179c0.155,0.146,0.326,0.307,0.518,0.488
									c0.526,0.479,1.172,1.066,1.936,1.761c1.645,1.476,3.945,3.483,6.533,5.645c2.589,2.162,4.975,4.067,6.72,5.424
									c0.819,0.627,1.513,1.158,2.078,1.591c0.212,0.157,0.4,0.296,0.572,0.423c0.132,0.095,0.203,0.143,0.207,0.138
									c0.004-0.005-0.06-0.062-0.185-0.166c-0.166-0.135-0.347-0.282-0.552-0.448c-0.555-0.444-1.237-0.99-2.042-1.634
									c-1.725-1.381-4.097-3.3-6.685-5.461c-2.586-2.16-4.897-4.152-6.563-5.604c-0.777-0.678-1.436-1.252-1.972-1.719
									c-0.201-0.172-0.378-0.324-0.54-0.463C86.012,435.398,85.945,435.345,85.941,435.35z"/>
							</g>
						</g>
					</g>
				</g>
				<g>
					<g>
						<g>
							<g>
								<path fill="#263238" d="M100.571,448.066c0.037,0.039,0.468-0.414,1.174-0.646c0.703-0.243,1.32-0.145,1.326-0.197
									c0.02-0.04-0.627-0.227-1.382,0.032C100.933,447.505,100.531,448.045,100.571,448.066z"/>
							</g>
						</g>
					</g>
				</g>
				<g>
					<g>
						<g>
							<g>
								
									<ellipse transform="matrix(-0.9521 0.3057 -0.3057 -0.9521 329.5352 835.3539)" fill="#263238" cx="99.366" cy="443.477" rx="0.709" ry="0.087"/>
							</g>
						</g>
					</g>
				</g>
				<g>
					<g>
						<g>
							<g>
								
									<ellipse transform="matrix(-0.9993 0.0364 -0.0364 -0.9993 213.6384 881.0118)" fill="#263238" cx="98.793" cy="442.452" rx="0.603" ry="0.087"/>
							</g>
						</g>
					</g>
				</g>
				<g>
					<g>
						<g>
							<g>
								
									<ellipse transform="matrix(-0.7608 -0.649 0.649 -0.7608 -112.0776 841.5844)" fill="#263238" cx="99.066" cy="441.448" rx="0.752" ry="0.087"/>
							</g>
						</g>
					</g>
				</g>
				<g>
					<g>
						<g>
							<g>
								<path fill="#263238" d="M98.914,440.063c-0.04,0.022,0.135,0.384,0.487,0.724c0.35,0.341,0.716,0.506,0.738,0.465
									c0.026-0.043-0.284-0.266-0.617-0.59C99.188,440.339,98.956,440.036,98.914,440.063z"/>
							</g>
						</g>
					</g>
				</g>
				<g>
					<g>
						<g>
							<g>
								<path fill="#263238" d="M99.869,443.042c-0.014,0.014,0.231,0.274,0.713,0.587c0.241,0.156,0.542,0.32,0.895,0.464
									c0.179,0.066,0.354,0.15,0.581,0.183c0.109,0.012,0.242,0.011,0.36-0.074c0.118-0.082,0.161-0.249,0.129-0.373
									c-0.386-0.918-1.383-1.103-1.928-0.962c-0.288,0.063-0.497,0.185-0.626,0.28c-0.13,0.098-0.185,0.169-0.178,0.177
									c0.017,0.03,0.281-0.239,0.828-0.336c0.27-0.047,0.604-0.03,0.935,0.111c0.313,0.135,0.687,0.412,0.798,0.764
									c0.043,0.177-0.111,0.273-0.299,0.243c-0.18-0.021-0.369-0.103-0.541-0.162c-0.346-0.132-0.646-0.28-0.89-0.42
									C100.158,443.246,99.887,443.02,99.869,443.042z"/>
							</g>
						</g>
					</g>
				</g>
				<g>
					<g>
						<g>
							<g>
								<path fill="#263238" d="M100.023,443.231c0.004,0.016,0.26-0.078,0.493-0.425c0.113-0.171,0.211-0.405,0.238-0.681
									c0.006-0.262,0.026-0.613-0.289-0.854c-0.182-0.116-0.418,0.004-0.492,0.146c-0.091,0.135-0.124,0.288-0.144,0.418
									c-0.042,0.265-0.043,0.508-0.023,0.709c0.042,0.403,0.148,0.633,0.167,0.626c0.027-0.007-0.035-0.245-0.043-0.634
									c-0.004-0.193,0.009-0.424,0.058-0.674c0.028-0.23,0.186-0.556,0.391-0.439c0.192,0.131,0.226,0.459,0.216,0.691
									c-0.016,0.246-0.092,0.463-0.184,0.629C100.224,443.077,100.004,443.206,100.023,443.231z"/>
							</g>
						</g>
					</g>
				</g>
				<g>
					<g>
						<g>
							<g>
								<path fill="#263238" d="M88.687,432.515c-0.018,0.027,0.342,0.233,0.792,0.709c0.449,0.468,0.967,1.244,1.168,2.219
									c0.2,0.976,0.03,1.895-0.198,2.501c-0.227,0.614-0.476,0.946-0.448,0.964c0.008,0.006,0.079-0.07,0.186-0.223
									c0.108-0.152,0.246-0.388,0.376-0.696c0.264-0.611,0.463-1.563,0.254-2.581c-0.209-1.017-0.768-1.813-1.251-2.271
									c-0.242-0.231-0.461-0.394-0.621-0.49C88.787,432.548,88.692,432.506,88.687,432.515z"/>
							</g>
						</g>
					</g>
				</g>
				<g>
					<g>
						<g>
							<g>
								
									<ellipse transform="matrix(0.6501 -0.7598 0.7598 0.6501 -295.4731 220.5406)" fill="#263238" cx="91.744" cy="431.119" rx="2.956" ry="0.087"/>
							</g>
						</g>
					</g>
				</g>
				<g>
					<g>
						<g>
							<g>
								<path fill="#263238" d="M92.253,439.067c-0.033,0.031,0.588,0.749,1.479,1.505c0.89,0.759,1.699,1.256,1.724,1.218
									c0.029-0.041-0.729-0.599-1.611-1.351C92.962,439.691,92.29,439.032,92.253,439.067z"/>
							</g>
						</g>
					</g>
				</g>
				<g>
					<g>
						<g>
							<g>
								<path fill="#263238" d="M90.091,437.258c-0.05,0.005-0.069,0.202-0.133,0.429c-0.062,0.229-0.146,0.407-0.106,0.437
									c0.036,0.03,0.203-0.127,0.274-0.39C90.2,437.471,90.137,437.251,90.091,437.258z"/>
							</g>
						</g>
					</g>
				</g>
				<g>
					<g>
						<g>
							<g>
								
									<ellipse transform="matrix(-0.0834 -0.9965 0.9965 -0.0834 -336.7575 562.1255)" fill="#263238" cx="90.154" cy="435.944" rx="0.384" ry="0.087"/>
							</g>
						</g>
					</g>
				</g>
				<g>
					<g>
						<g>
							<g>
								<path fill="#263238" d="M89.341,434.125c-0.023,0.044,0.125,0.165,0.239,0.357c0.119,0.189,0.16,0.377,0.209,0.376
									c0.047,0.004,0.085-0.23-0.061-0.467C89.585,434.154,89.358,434.081,89.341,434.125z"/>
							</g>
						</g>
					</g>
				</g>
				<g>
					<g>
						<g>
							<g>
								
									<ellipse transform="matrix(-0.4856 -0.8742 0.8742 -0.4856 -246.9699 721.4951)" fill="#263238" cx="88.805" cy="433.415" rx="0.232" ry="0.087"/>
							</g>
						</g>
					</g>
				</g>
			</g>
		</g>
		<g>
			<g>
				<path fill="#263238" d="M129.222,281.587c0,0-4.789,20.263-3.435,24.271s10.129,6.326,10.129,6.326l-0.296,55.486
					l-48.525,59.979l17.919,14.661c0,0,52.53-60.093,57.161-70.974c4.631-10.882-2.951-90.648-2.951-90.648L129.222,281.587z"/>
			</g>
			<g>
				<path fill="#263238" d="M154.006,273.326l2.375,168.526l-24.686,0.125l-12.388-137.256l0,0
					c-2.619-2.499-6.302-6.78-5.795-16.327l0.601-11.091L154.006,273.326z"/>
			</g>
			<g>
				<g>
					<path fill="#455A64" d="M127.978,377.053c-0.009-0.007,0.04-0.092,0.143-0.25c0.127-0.188,0.281-0.415,0.468-0.691
						c0.454-0.642,1.067-1.51,1.835-2.596c1.641-2.271,3.935-5.447,6.697-9.271l-0.042,0.128c-0.538-5.85-1.189-12.943-1.892-20.591
						c-0.896-10.024-1.622-19.105-2.049-25.687c-0.218-3.29-0.361-5.955-0.44-7.798c-0.03-0.881-0.054-1.586-0.073-2.122
						c-0.011-0.485-0.008-0.741,0.01-0.742c0.018-0.001,0.05,0.253,0.095,0.736c0.043,0.534,0.1,1.237,0.17,2.116
						c0.147,1.895,0.353,4.539,0.605,7.782c0.521,6.571,1.305,15.646,2.2,25.667c0.672,7.676,1.358,14.757,1.802,20.636l0.005,0.065
						l-0.046,0.063c-2.823,3.779-5.168,6.918-6.845,9.163c-0.807,1.057-1.452,1.901-1.929,2.526
						c-0.208,0.262-0.378,0.477-0.52,0.654C128.053,376.988,127.986,377.06,127.978,377.053z"/>
				</g>
			</g>
			<g>
				<g>
					<path fill="#455A64" d="M135.555,307.433c-0.022,0.139-2.963-0.22-6.536-0.973c-3.575-0.748-6.412-1.603-6.376-1.739
						c0.037-0.143,2.921,0.484,6.483,1.229C132.686,306.701,135.579,307.288,135.555,307.433z"/>
				</g>
			</g>
			<g>
				<g>
					<path fill="#455A64" d="M152.463,364.971c-0.066,0.159-2.835-1.46-6.667-1.737c-3.828-0.33-6.817,0.833-6.857,0.665
						c-0.022-0.055,0.685-0.42,1.924-0.753c1.234-0.336,3.015-0.583,4.975-0.431c1.958,0.158,3.678,0.683,4.844,1.209
						C151.853,364.448,152.493,364.92,152.463,364.971z"/>
				</g>
			</g>
			<g>
				<g>
					
						<ellipse transform="matrix(0.6055 -0.7959 0.7959 0.6055 -255.7405 270.9901)" fill="#455A64" cx="145.454" cy="393.438" rx="25.956" ry="0.26"/>
				</g>
			</g>
			<g>
				<g>
					<path fill="#455A64" d="M157.826,285.844c0.045,0.016-0.294,0.878-1.39,1.834c-1.061,0.944-3.01,1.903-5.263,1.676
						c-2.251-0.247-3.958-1.592-4.798-2.737c-0.872-1.164-1.023-2.077-0.976-2.083c0.088-0.037,0.363,0.809,1.262,1.851
						c0.87,1.032,2.496,2.226,4.567,2.451c2.072,0.211,3.911-0.617,4.977-1.444C157.302,286.56,157.748,285.79,157.826,285.844z"/>
				</g>
			</g>
		</g>
		<g>
			<path fill="#263238" d="M124.097,199.135c-4.02-3.817-6.473-9.236-6.688-14.774c-0.215-5.539,1.809-11.132,5.52-15.25"/>
		</g>
		<g>
			<g>
				<g>
					<linearGradient id="SVGID_12_" gradientUnits="userSpaceOnUse" x1="103.7593" y1="230.5771" x2="119.3174" y2="230.5771">
						<stop  offset="0" style="stop-color:#86EDD0"/>
						<stop  offset="1" style="stop-color:#60A9E6"/>
					</linearGradient>
					<path fill="url(#SVGID_12_)" d="M110.233,214.854c0,0-5.363,6.058-6.474,29.23c0,0,15.273,2.897,15.552,2.064
						C119.59,245.316,110.233,214.854,110.233,214.854z"/>
				</g>
				<g opacity="0.3">
					<path fill="#070707" d="M110.233,214.854c0,0-5.363,6.058-6.474,29.23c0,0,15.273,2.897,15.552,2.064
						C119.59,245.316,110.233,214.854,110.233,214.854z"/>
				</g>
				<g>
					<g>
						<g>
							<g>
								<linearGradient id="SVGID_13_" gradientUnits="userSpaceOnUse" x1="114.5508" y1="244.085" x2="114.5508" y2="244.085">
									<stop  offset="0" style="stop-color:#86EDD0"/>
									<stop  offset="1" style="stop-color:#60A9E6"/>
								</linearGradient>
								<path fill="url(#SVGID_13_)" d="M114.551,244.085"/>
							</g>
							<g>
								<linearGradient id="SVGID_14_" gradientUnits="userSpaceOnUse" x1="108.5552" y1="242.9019" x2="177.5278" y2="242.9019">
									<stop  offset="0" style="stop-color:#86EDD0"/>
									<stop  offset="1" style="stop-color:#60A9E6"/>
								</linearGradient>
								<path fill="url(#SVGID_14_)" d="M112.707,282.338h46.889l-0.757-7.323c0,0-5.358-27.867-5.319-28.234l0.844-1.774
									c2.213-4.651,2.288-10.035,0.206-14.746l0,0l22.959-7.851l-5.621-18.945c-10.418,1.759-26.166,3.721-26.166,3.721
									l-2.344,0.197c0,0-16.256,0.848-16.604,0.89c-6.801,0.822-14.712,1.344-17.605,8.622c-1.546,3.892-0.077,9.733,2.447,15.756
									l6.011,18.498c2.4,10.167-1.43,9.684-3.533,19.916C113.795,272.613,112.675,280.919,112.707,282.338z"/>
							</g>
							<g opacity="0.3">
								<linearGradient id="SVGID_15_" gradientUnits="userSpaceOnUse" x1="108.5552" y1="242.9019" x2="177.5278" y2="242.9019">
									<stop  offset="0" style="stop-color:#86EDD0"/>
									<stop  offset="1" style="stop-color:#60A9E6"/>
								</linearGradient>
								<path fill="url(#SVGID_15_)" d="M112.707,282.338h46.889l-0.757-7.323c0,0-5.358-27.867-5.319-28.234l0.844-1.774
									c2.213-4.651,2.288-10.035,0.206-14.746l0,0l22.959-7.851l-5.621-18.945c-10.418,1.759-26.166,3.721-26.166,3.721
									l-2.344,0.197c0,0-16.256,0.848-16.604,0.89c-6.801,0.822-14.712,1.344-17.605,8.622c-1.546,3.892-0.077,9.733,2.447,15.756
									l6.011,18.498c2.4,10.167-1.43,9.684-3.533,19.916C113.795,272.613,112.675,280.919,112.707,282.338z"/>
							</g>
						</g>
					</g>
				</g>
				<g>
					<g>
						<path fill="#263238" d="M177.313,222.717c0.011,0.034-0.353,0.185-1.019,0.428c-0.667,0.243-1.636,0.579-2.836,0.983
							c-2.401,0.811-5.734,1.886-9.414,3.063c-3.68,1.177-6.971,2.347-9.307,3.312c-1.172,0.473-2.104,0.895-2.755,1.172
							c-0.646,0.29-1.01,0.437-1.027,0.405c-0.017-0.032,0.317-0.239,0.938-0.586c0.626-0.335,1.539-0.81,2.699-1.329
							c2.313-1.057,5.605-2.29,9.293-3.469c3.685-1.179,7.033-2.196,9.463-2.918c1.215-0.359,2.201-0.642,2.886-0.826
							C176.918,222.769,177.302,222.683,177.313,222.717z"/>
					</g>
				</g>
			</g>
			<g>
				<g>
					<path fill="#FAFAFA" d="M174.588,212.631c0,0.144-13.863,0.261-30.96,0.261c-17.103,0-30.962-0.117-30.962-0.261
						c0-0.144,13.86-0.26,30.962-0.26C160.725,212.371,174.588,212.487,174.588,212.631z"/>
				</g>
			</g>
			<g>
				<g>
					<path fill="#FAFAFA" d="M176.017,221.84c0,0.144-15.427,0.261-34.453,0.261c-19.032,0-34.456-0.117-34.456-0.261
						c0-0.144,15.424-0.26,34.456-0.26C160.59,221.58,176.017,221.696,176.017,221.84z"/>
				</g>
			</g>
			<g>
				<g>
					<ellipse fill="#FAFAFA" cx="108.074" cy="232.319" rx="2.871" ry="0.26"/>
				</g>
			</g>
			<g>
				<g>
					<ellipse fill="#FAFAFA" cx="133.478" cy="232.637" rx="22.533" ry="0.26"/>
				</g>
			</g>
			<g>
				<g>
					<ellipse fill="#FAFAFA" cx="134.794" cy="243.434" rx="20.223" ry="0.26"/>
				</g>
			</g>
			<g>
				<g>
					<ellipse fill="#FAFAFA" cx="136.394" cy="253.436" rx="18.331" ry="0.261"/>
				</g>
			</g>
			<g>
				<g>
					<ellipse fill="#FAFAFA" cx="136.72" cy="261.534" rx="19.609" ry="0.261"/>
				</g>
			</g>
			<g>
				<g>
					<ellipse fill="#FAFAFA" cx="136.561" cy="271.854" rx="22.308" ry="0.261"/>
				</g>
			</g>
			<g>
				<g>
					<path fill="#263238" d="M117.365,250.283c-0.035,0.011-0.18-0.318-0.415-0.921c-0.275-0.714-0.604-1.566-0.986-2.559
						c-0.825-2.163-1.987-5.144-3.195-8.468c-1.214-3.323-2.21-6.373-2.84-8.606c-0.313-1.117-0.549-2.026-0.684-2.662
						c-0.139-0.634-0.198-0.989-0.164-0.998c0.077-0.019,0.48,1.355,1.199,3.553c0.718,2.199,1.765,5.217,2.978,8.536
						c1.206,3.319,2.314,6.322,3.052,8.521c0.371,1.099,0.653,1.994,0.831,2.619C117.318,249.922,117.399,250.272,117.365,250.283z"
						/>
				</g>
			</g>
		</g>
	</g>
</g>
</svg>
